<svg width="19" height="16" viewBox="0 0 19 16" fill="none" xmlns="http://www.w3.org/2000/svg">
<circle cx="9.69827" cy="7.56213" r="7.55056" fill="#D08E2B"/>
<mask id="mask0" mask-type="alpha" maskUnits="userSpaceOnUse" x="2" y="0" width="16" height="16">
<circle cx="9.69827" cy="7.56213" r="7.55056" fill="#E0B16A"/>
</mask>
<g mask="url(#mask0)">
<circle cx="9.69824" cy="2.12573" r="6.34247" fill="#E0B16A"/>
<rect x="2.14771" y="0.0115738" width="15.1011" height="15.1011" fill="black" fill-opacity="0.3"/>
</g>
<path fill-rule="evenodd" clip-rule="evenodd" d="M14.8391 15.8812C16.2532 15.2989 17.2488 13.9072 17.2488 12.2829C17.2488 10.6852 16.2854 9.31241 14.9079 8.71381C13.9945 8.31692 13.0638 8.93801 12.2974 9.574C11.4844 10.2487 10.574 10.5925 9.69823 10.7943C8.82246 10.5925 7.91209 10.2487 7.09904 9.574C6.33269 8.93801 5.40197 8.31692 4.48859 8.71381C3.11103 9.31241 2.14767 10.6852 2.14767 12.2829C2.14767 13.9072 3.14322 15.2989 4.55741 15.8812C5.43982 16.2445 6.33911 15.6756 7.07315 15.0658C7.91235 14.3687 8.82688 14.0078 9.69823 13.7953C10.5699 14.0079 11.4848 14.3689 12.3243 15.0666C13.0582 15.6766 13.9566 16.2445 14.8391 15.8812Z" fill="#524F4F" fill-opacity="0.75"/>
<path d="M8.9201 6.70679H6.19229C4.35069 6.70679 2.69719 7.83514 2.02581 9.54999L1.4378 11.0519C1.00334 12.1616 1.41134 13.4237 2.41316 14.0691C3.23333 14.5975 4.28575 14.6013 5.10968 14.0788L5.42436 13.8792C6.58608 13.1425 8.0951 13.2636 9.12454 14.176L9.15125 14.1997C9.6885 14.6759 10.373 14.9532 11.0902 14.9852L13.3498 15.0861C15.2694 15.1718 17.0157 13.9815 17.6377 12.1633L17.8771 11.4636C18.0358 10.9997 18.0342 10.4959 17.8725 10.0331C17.5221 9.03039 16.5026 8.42389 15.4543 8.59454L13.8539 8.85508C12.8301 9.02173 11.797 8.61703 11.1588 7.79938C10.6207 7.10986 9.79479 6.70679 8.9201 6.70679Z" fill="#707070" fill-opacity="0.5"/>
</svg>
