<svg width="21" height="21" viewBox="0 0 21 21" fill="none" xmlns="http://www.w3.org/2000/svg">
<path d="M7.06084 15.706L7.07504 18.6163C7.07869 19.365 6.33534 19.8882 5.63183 19.6321C4.92833 19.3761 4.6952 18.4975 5.17922 17.9263L7.06084 15.706Z" fill="#4D6D85"/>
<mask id="mask0" mask-type="alpha" maskUnits="userSpaceOnUse" x="4" y="15" width="5" height="6">
<path d="M7.06084 15.706L7.07504 18.6163C7.07869 19.365 6.33534 19.8882 5.63183 19.6321C4.92833 19.3761 4.6952 18.4975 5.17922 17.9263L7.06084 15.706Z" fill="#4D6D85"/>
</mask>
<g mask="url(#mask0)">
<path d="M5.96344 18.2894L7.06083 15.706L7.73088 19.2401L6.58132 19.7109C6.00616 19.5016 5.72414 18.8528 5.96344 18.2894Z" fill="#799FBB"/>
</g>
<path d="M11.239 15.706L11.2532 18.6163C11.2568 19.365 10.5135 19.8882 9.80996 19.6321C9.10646 19.3761 8.87333 18.4975 9.35735 17.9263L11.239 15.706Z" fill="#4D6D85"/>
<mask id="mask1" mask-type="alpha" maskUnits="userSpaceOnUse" x="8" y="15" width="5" height="6">
<path d="M11.239 15.706L11.2532 18.6163C11.2568 19.365 10.5135 19.8882 9.80996 19.6321C9.10646 19.3761 8.87333 18.4975 9.35735 17.9263L11.239 15.706Z" fill="#4D6D85"/>
</mask>
<g mask="url(#mask1)">
<path d="M10.1416 18.2894L11.239 15.706L11.909 19.2401L10.7595 19.7109C10.1843 19.5016 9.90229 18.8528 10.1416 18.2894Z" fill="#799FBB"/>
</g>
<path d="M15.4171 15.706L15.4313 18.6163C15.435 19.365 14.6916 19.8882 13.9881 19.6321C13.2846 19.3761 13.0515 18.4975 13.5355 17.9263L15.4171 15.706Z" fill="#4D6D85"/>
<mask id="mask2" mask-type="alpha" maskUnits="userSpaceOnUse" x="12" y="15" width="5" height="6">
<path d="M15.4171 15.706L15.4313 18.6163C15.435 19.365 14.6916 19.8882 13.9881 19.6321C13.2846 19.3761 13.0515 18.4975 13.5355 17.9263L15.4171 15.706Z" fill="#4D6D85"/>
</mask>
<g mask="url(#mask2)">
<path d="M14.3197 18.2894L15.4171 15.706L16.0872 19.2401L14.9376 19.7109C14.3624 19.5016 14.0804 18.8528 14.3197 18.2894Z" fill="#799FBB"/>
</g>
<circle cx="4.41781" cy="9.8354" r="3.89333" fill="#444444"/>
<ellipse cx="16.9828" cy="10.3954" rx="3.33333" ry="3.33333" fill="#444444"/>
<circle cx="14.7111" cy="7.16874" r="2.66667" fill="#444444"/>
<ellipse cx="8.68448" cy="5.91539" rx="5.12" ry="5.12" fill="#444444"/>
<rect x="4.20448" y="8.87537" width="12.8533" height="4.85333" fill="#444444"/>
<mask id="mask3" mask-type="alpha" maskUnits="userSpaceOnUse" x="0" y="0" width="21" height="14">
<circle cx="4.41781" cy="9.8354" r="3.89333" fill="#444444"/>
<ellipse cx="16.9828" cy="10.3954" rx="3.33333" ry="3.33333" fill="#444444"/>
<circle cx="14.7111" cy="7.16874" r="2.66667" fill="#444444"/>
<ellipse cx="8.68448" cy="5.91539" rx="5.12" ry="5.12" fill="#444444"/>
<rect x="4.20448" y="8.87537" width="12.8533" height="4.85333" fill="#444444"/>
</mask>
<g mask="url(#mask3)">
<path d="M16.6495 1.9949L1.52448 15.4324H21.0245L26.0245 11.6824L16.6495 1.9949Z" fill="#333333"/>
</g>
</svg>
