<svg width="20" height="20" viewBox="0 0 20 20" fill="none" xmlns="http://www.w3.org/2000/svg">
<path fill-rule="evenodd" clip-rule="evenodd" d="M15.8008 18.1662L16.4366 18.5158V17.8103L17.0175 17.4852L16.4366 17.1429V16.4002L15.8008 16.7637L15.1762 16.4002V17.1299L14.5624 17.4852L15.1762 17.8227V18.5158L15.8008 18.1662Z" fill="#799FBB"/>
<rect width="0.468262" height="0.117377" rx="0.0586887" transform="matrix(0.864887 -0.501967 0.498035 0.867157 15.7314 15.6951)" fill="white"/>
<rect width="0.468262" height="0.117377" rx="0.0586887" transform="matrix(-0.86488 -0.501979 -0.498024 0.867163 15.8441 15.6951)" fill="white"/>
<rect width="0.468262" height="0.117377" rx="0.0586887" transform="matrix(0.864886 -0.501968 0.498034 0.867157 15.7314 16.1652)" fill="#8F8F8F"/>
<rect width="0.468262" height="0.117377" rx="0.0586887" transform="matrix(-0.864879 -0.50198 -0.498023 0.867164 15.8441 16.1652)" fill="#8F8F8F"/>
<rect width="0.468262" height="0.117377" rx="0.0586887" transform="matrix(0.864886 0.501969 0.498033 -0.867158 15.7314 19.3228)" fill="white"/>
<rect width="0.468262" height="0.117377" rx="0.0586887" transform="matrix(-0.864879 0.501981 -0.498022 -0.867165 15.8441 19.3228)" fill="white"/>
<rect width="0.468262" height="0.117377" rx="0.0586887" transform="matrix(0.864886 0.501968 0.498034 -0.867157 15.7314 18.8527)" fill="#8F8F8F"/>
<rect width="0.468262" height="0.117377" rx="0.0586887" transform="matrix(-0.864879 0.50198 -0.498023 -0.867164 15.8441 18.8527)" fill="#8F8F8F"/>
<rect x="14.1824" y="16.4826" width="0.46826" height="0.117377" rx="0.0585718" transform="rotate(-90 14.1824 16.4826)" fill="white"/>
<rect width="0.469198" height="0.117144" rx="0.0585718" transform="matrix(-0.863145 0.500997 0.498999 0.868904 14.2387 16.3845)" fill="white"/>
<rect x="14.5331" y="16.7177" width="0.46826" height="0.117377" rx="0.0585718" transform="rotate(-90 14.5331 16.7177)" fill="#8F8F8F"/>
<rect width="0.469198" height="0.117144" rx="0.0585718" transform="matrix(-0.863162 0.500966 0.499029 0.868887 14.5894 16.6196)" fill="#8F8F8F"/>
<rect width="0.469198" height="0.117144" rx="0.0585718" transform="matrix(4.19467e-08 1.00199 0.998001 -3.21017e-08 14.1824 18.2415)" fill="white"/>
<rect width="0.469198" height="0.117144" rx="0.0585718" transform="matrix(-0.863135 -0.501013 0.498982 -0.868914 14.2388 18.3396)" fill="white"/>
<rect width="0.469198" height="0.117144" rx="0.0585718" transform="matrix(4.19467e-08 1.00199 0.998001 -3.21017e-08 14.5331 18.0063)" fill="#8F8F8F"/>
<rect width="0.469198" height="0.117144" rx="0.0585718" transform="matrix(-0.863162 -0.500967 0.499028 -0.868887 14.5894 18.1045)" fill="#8F8F8F"/>
<rect x="17.4266" y="18.2415" width="0.46826" height="0.117377" rx="0.0585718" transform="rotate(90 17.4266 18.2415)" fill="white"/>
<rect width="0.469198" height="0.117144" rx="0.0585718" transform="matrix(0.863145 -0.500997 -0.498999 -0.868904 17.3702 18.3396)" fill="white"/>
<rect x="17.0759" y="18.0063" width="0.46826" height="0.117377" rx="0.0585718" transform="rotate(90 17.0759 18.0063)" fill="#8F8F8F"/>
<rect width="0.469198" height="0.117144" rx="0.0585718" transform="matrix(0.863145 -0.500997 -0.498999 -0.868904 17.0196 18.1045)" fill="#8F8F8F"/>
<rect width="0.469198" height="0.117144" rx="0.0585718" transform="matrix(-4.19467e-08 -1.00199 -0.998001 3.21017e-08 17.3973 16.4826)" fill="white"/>
<rect width="0.469198" height="0.117144" rx="0.0585718" transform="matrix(0.863128 0.501025 -0.498971 0.86892 17.341 16.3845)" fill="white"/>
<rect width="0.469198" height="0.117144" rx="0.0585718" transform="matrix(-4.19467e-08 -1.00199 -0.998001 3.21017e-08 17.0467 16.7179)" fill="#8F8F8F"/>
<rect width="0.469198" height="0.117144" rx="0.0585718" transform="matrix(0.863151 0.500985 -0.49901 0.868897 16.9902 16.6197)" fill="#8F8F8F"/>
<rect x="15.7314" y="15.6951" width="0.117533" height="3.64352" rx="0.0587664" fill="white"/>
<rect width="0.117377" height="3.62903" rx="0.0586887" transform="matrix(0.498004 -0.867174 0.864869 0.501998 14.2116 16.5021)" fill="white"/>
<rect width="0.117377" height="3.62903" rx="0.0586887" transform="matrix(-0.498007 -0.867173 -0.86487 0.501995 17.4087 16.5021)" fill="white"/>
<path fill-rule="evenodd" clip-rule="evenodd" d="M9.94605 18.1662L10.5818 18.5158V17.8103L11.1627 17.4852L10.5818 17.1429V16.4002L9.94605 16.7637L9.32142 16.4002V17.1299L8.70764 17.4852L9.32142 17.8227V18.5158L9.94605 18.1662Z" fill="#799FBB"/>
<rect width="0.468262" height="0.117377" rx="0.0586887" transform="matrix(0.864887 -0.501967 0.498035 0.867157 9.87668 15.6951)" fill="white"/>
<rect width="0.468262" height="0.117377" rx="0.0586887" transform="matrix(-0.86488 -0.501979 -0.498024 0.867163 9.98941 15.6951)" fill="white"/>
<rect width="0.468262" height="0.117377" rx="0.0586887" transform="matrix(0.864886 -0.501968 0.498034 0.867157 9.87668 16.1652)" fill="#8F8F8F"/>
<rect width="0.468262" height="0.117377" rx="0.0586887" transform="matrix(-0.864879 -0.50198 -0.498023 0.867164 9.98941 16.1652)" fill="#8F8F8F"/>
<rect width="0.468262" height="0.117377" rx="0.0586887" transform="matrix(0.864886 0.501969 0.498033 -0.867158 9.87668 19.3228)" fill="white"/>
<rect width="0.468262" height="0.117377" rx="0.0586887" transform="matrix(-0.864879 0.501981 -0.498022 -0.867165 9.98941 19.3228)" fill="white"/>
<rect width="0.468262" height="0.117377" rx="0.0586887" transform="matrix(0.864886 0.501968 0.498034 -0.867157 9.87668 18.8527)" fill="#8F8F8F"/>
<rect width="0.468262" height="0.117377" rx="0.0586887" transform="matrix(-0.864879 0.50198 -0.498023 -0.867164 9.98941 18.8527)" fill="#8F8F8F"/>
<rect x="8.32767" y="16.4826" width="0.46826" height="0.117377" rx="0.0585718" transform="rotate(-90 8.32767 16.4826)" fill="white"/>
<rect width="0.469198" height="0.117144" rx="0.0585718" transform="matrix(-0.863145 0.500997 0.498999 0.868904 8.38397 16.3845)" fill="white"/>
<rect x="8.67834" y="16.7177" width="0.46826" height="0.117377" rx="0.0585718" transform="rotate(-90 8.67834 16.7177)" fill="#8F8F8F"/>
<rect width="0.469198" height="0.117144" rx="0.0585718" transform="matrix(-0.863162 0.500966 0.499029 0.868887 8.73468 16.6196)" fill="#8F8F8F"/>
<rect width="0.469198" height="0.117144" rx="0.0585718" transform="matrix(4.19467e-08 1.00199 0.998001 -3.21017e-08 8.32764 18.2415)" fill="white"/>
<rect width="0.469198" height="0.117144" rx="0.0585718" transform="matrix(-0.863135 -0.501013 0.498982 -0.868914 8.38403 18.3396)" fill="white"/>
<rect width="0.469198" height="0.117144" rx="0.0585718" transform="matrix(4.19467e-08 1.00199 0.998001 -3.21017e-08 8.67831 18.0063)" fill="#8F8F8F"/>
<rect width="0.469198" height="0.117144" rx="0.0585718" transform="matrix(-0.863162 -0.500967 0.499028 -0.868887 8.73468 18.1045)" fill="#8F8F8F"/>
<rect x="11.5719" y="18.2415" width="0.46826" height="0.117377" rx="0.0585718" transform="rotate(90 11.5719 18.2415)" fill="white"/>
<rect width="0.469198" height="0.117144" rx="0.0585718" transform="matrix(0.863145 -0.500997 -0.498999 -0.868904 11.5154 18.3396)" fill="white"/>
<rect x="11.2212" y="18.0063" width="0.46826" height="0.117377" rx="0.0585718" transform="rotate(90 11.2212 18.0063)" fill="#8F8F8F"/>
<rect width="0.469198" height="0.117144" rx="0.0585718" transform="matrix(0.863145 -0.500997 -0.498999 -0.868904 11.1648 18.1045)" fill="#8F8F8F"/>
<rect width="0.469198" height="0.117144" rx="0.0585718" transform="matrix(-4.19467e-08 -1.00199 -0.998001 3.21017e-08 11.5426 16.4826)" fill="white"/>
<rect width="0.469198" height="0.117144" rx="0.0585718" transform="matrix(0.863128 0.501025 -0.498971 0.86892 11.4863 16.3845)" fill="white"/>
<rect width="0.469198" height="0.117144" rx="0.0585718" transform="matrix(-4.19467e-08 -1.00199 -0.998001 3.21017e-08 11.1919 16.7179)" fill="#8F8F8F"/>
<rect width="0.469198" height="0.117144" rx="0.0585718" transform="matrix(0.863151 0.500985 -0.49901 0.868897 11.1355 16.6197)" fill="#8F8F8F"/>
<rect x="9.87668" y="15.6951" width="0.117533" height="3.64352" rx="0.0587664" fill="white"/>
<rect width="0.117377" height="3.62903" rx="0.0586887" transform="matrix(0.498004 -0.867174 0.864869 0.501998 8.35687 16.5021)" fill="white"/>
<rect width="0.117377" height="3.62903" rx="0.0586887" transform="matrix(-0.498007 -0.867173 -0.86487 0.501995 11.554 16.5021)" fill="white"/>
<path fill-rule="evenodd" clip-rule="evenodd" d="M4.09129 18.1662L4.72708 18.5158V17.8103L5.30797 17.4852L4.72708 17.1429V16.4002L4.09129 16.7637L3.46665 16.4002V17.1299L2.85287 17.4852L3.46665 17.8227V18.5158L4.09129 18.1662Z" fill="#799FBB"/>
<rect width="0.468262" height="0.117377" rx="0.0586887" transform="matrix(0.864887 -0.501967 0.498035 0.867157 4.02191 15.6951)" fill="white"/>
<rect width="0.468262" height="0.117377" rx="0.0586887" transform="matrix(-0.86488 -0.501979 -0.498024 0.867163 4.13464 15.6951)" fill="white"/>
<rect width="0.468262" height="0.117377" rx="0.0586887" transform="matrix(0.864886 -0.501968 0.498034 0.867157 4.02191 16.1652)" fill="#8F8F8F"/>
<rect width="0.468262" height="0.117377" rx="0.0586887" transform="matrix(-0.864879 -0.50198 -0.498023 0.867164 4.13464 16.1652)" fill="#8F8F8F"/>
<rect width="0.468262" height="0.117377" rx="0.0586887" transform="matrix(0.864886 0.501969 0.498033 -0.867158 4.02191 19.3228)" fill="white"/>
<rect width="0.468262" height="0.117377" rx="0.0586887" transform="matrix(-0.864879 0.501981 -0.498022 -0.867165 4.13464 19.3228)" fill="white"/>
<rect width="0.468262" height="0.117377" rx="0.0586887" transform="matrix(0.864886 0.501968 0.498034 -0.867157 4.02191 18.8527)" fill="#8F8F8F"/>
<rect width="0.468262" height="0.117377" rx="0.0586887" transform="matrix(-0.864879 0.50198 -0.498023 -0.867164 4.13464 18.8527)" fill="#8F8F8F"/>
<rect x="2.47293" y="16.4826" width="0.46826" height="0.117377" rx="0.0585718" transform="rotate(-90 2.47293 16.4826)" fill="white"/>
<rect width="0.469198" height="0.117144" rx="0.0585718" transform="matrix(-0.863145 0.500997 0.498999 0.868904 2.52927 16.3845)" fill="white"/>
<rect x="2.82358" y="16.7177" width="0.46826" height="0.117377" rx="0.0585718" transform="rotate(-90 2.82358 16.7177)" fill="#8F8F8F"/>
<rect width="0.469198" height="0.117144" rx="0.0585718" transform="matrix(-0.863162 0.500966 0.499029 0.868887 2.87997 16.6196)" fill="#8F8F8F"/>
<rect width="0.469198" height="0.117144" rx="0.0585718" transform="matrix(4.19467e-08 1.00199 0.998001 -3.21017e-08 2.4729 18.2415)" fill="white"/>
<rect width="0.469198" height="0.117144" rx="0.0585718" transform="matrix(-0.863135 -0.501013 0.498982 -0.868914 2.5293 18.3396)" fill="white"/>
<rect width="0.469198" height="0.117144" rx="0.0585718" transform="matrix(4.19467e-08 1.00199 0.998001 -3.21017e-08 2.82358 18.0063)" fill="#8F8F8F"/>
<rect width="0.469198" height="0.117144" rx="0.0585718" transform="matrix(-0.863162 -0.500967 0.499028 -0.868887 2.87997 18.1045)" fill="#8F8F8F"/>
<rect x="5.71716" y="18.2415" width="0.46826" height="0.117377" rx="0.0585718" transform="rotate(90 5.71716 18.2415)" fill="white"/>
<rect width="0.469198" height="0.117144" rx="0.0585718" transform="matrix(0.863145 -0.500997 -0.498999 -0.868904 5.66071 18.3396)" fill="white"/>
<rect x="5.36646" y="18.0063" width="0.46826" height="0.117377" rx="0.0585718" transform="rotate(90 5.36646 18.0063)" fill="#8F8F8F"/>
<rect width="0.469198" height="0.117144" rx="0.0585718" transform="matrix(0.863145 -0.500997 -0.498999 -0.868904 5.31009 18.1045)" fill="#8F8F8F"/>
<rect width="0.469198" height="0.117144" rx="0.0585718" transform="matrix(-4.19467e-08 -1.00199 -0.998001 3.21017e-08 5.68781 16.4826)" fill="white"/>
<rect width="0.469198" height="0.117144" rx="0.0585718" transform="matrix(0.863128 0.501025 -0.498971 0.86892 5.63156 16.3845)" fill="white"/>
<rect width="0.469198" height="0.117144" rx="0.0585718" transform="matrix(-4.19467e-08 -1.00199 -0.998001 3.21017e-08 5.33722 16.7179)" fill="#8F8F8F"/>
<rect width="0.469198" height="0.117144" rx="0.0585718" transform="matrix(0.863151 0.500985 -0.49901 0.868897 5.28073 16.6197)" fill="#8F8F8F"/>
<rect x="4.02191" y="15.6951" width="0.117533" height="3.64352" rx="0.0587664" fill="white"/>
<rect width="0.117377" height="3.62903" rx="0.0586887" transform="matrix(0.498004 -0.867174 0.864869 0.501998 2.50214 16.5021)" fill="white"/>
<rect width="0.117377" height="3.62903" rx="0.0586887" transform="matrix(-0.498007 -0.867173 -0.86487 0.501995 5.69925 16.5021)" fill="white"/>
<ellipse cx="4.19404" cy="9.28913" rx="3.66957" ry="3.68914" fill="#F5ECDF"/>
<ellipse cx="16.0369" cy="9.81976" rx="3.14175" ry="3.15851" fill="#F5ECDF"/>
<ellipse cx="13.8958" cy="6.76233" rx="2.5134" ry="2.52681" fill="#F5ECDF"/>
<ellipse cx="8.21551" cy="5.57472" rx="4.82574" ry="4.85147" fill="#F5ECDF"/>
<rect x="3.99298" y="8.37945" width="12.1146" height="4.59879" fill="#F5ECDF"/>
<mask id="mask0" mask-type="alpha" maskUnits="userSpaceOnUse" x="0" y="0" width="20" height="13">
<ellipse cx="4.19404" cy="9.28913" rx="3.66957" ry="3.68914" fill="#444444"/>
<ellipse cx="16.0369" cy="9.81976" rx="3.14175" ry="3.15851" fill="#444444"/>
<ellipse cx="13.8958" cy="6.76233" rx="2.5134" ry="2.52681" fill="#444444"/>
<ellipse cx="8.21551" cy="5.57472" rx="4.82574" ry="4.85147" fill="#444444"/>
<rect x="3.99298" y="8.37945" width="12.1146" height="4.59879" fill="#444444"/>
</mask>
<g mask="url(#mask0)">
<path d="M15.7227 1.85985L1.46701 14.5926H19.8463L24.5589 11.0393L15.7227 1.85985Z" fill="#BBBBBB"/>
</g>
</svg>
