<?xml version="1.0" encoding="UTF-8"?>
<svg width="46px" height="46px" viewBox="0 0 46 46" version="1.1" xmlns="http://www.w3.org/2000/svg" xmlns:xlink="http://www.w3.org/1999/xlink">
    <!-- Generator: Sketch 53.2 (72643) - https://sketchapp.com -->
    <title>settings</title>
    <desc>Created with Sketch.</desc>
    <g id="Page-1" stroke="none" stroke-width="1" fill="none" fill-rule="evenodd">
        <g id="settings" fill="#444444" fill-rule="nonzero">
            <path d="M45.16,19.221 L39.25,18.255 C38.904,17.069 38.431,15.929 37.839,14.85 L41.289,9.933 C41.568,9.536 41.52,8.995 41.177,8.651 L37.288,4.764 C36.941,4.418 36.395,4.373 35.997,4.66 L31.154,8.141 C30.065,7.539 28.915,7.061 27.722,6.714 L26.691,0.828 C26.607,0.35 26.192,0 25.706,0 L20.206,0 C19.716,0 19.298,0.355 19.219,0.839 L18.263,6.693 C17.063,7.038 15.911,7.511 14.826,8.105 L9.996,4.655 C9.597,4.37 9.054,4.416 8.707,4.761 L4.82,8.648 C4.477,8.991 4.429,9.531 4.708,9.928 L8.107,14.791 C7.502,15.886 7.02,17.045 6.669,18.251 L0.838,19.222 C0.356,19.302 0.002,19.72 0.002,20.208 L0.002,25.708 C0.002,26.193 0.35,26.608 0.827,26.693 L6.658,27.727 C7.007,28.93 7.489,30.089 8.096,31.187 L4.655,36 C4.371,36.397 4.416,36.942 4.761,37.289 L8.649,41.18 C8.992,41.523 9.533,41.571 9.93,41.292 L14.8,37.881 C15.893,38.482 17.048,38.959 18.245,39.305 L19.221,45.166 C19.3,45.647 19.717,46 20.206,46 L25.706,46 C26.191,46 26.606,45.652 26.69,45.175 L27.735,39.285 C28.934,38.932 30.083,38.452 31.165,37.85 L36.07,41.291 C36.468,41.572 37.008,41.523 37.352,41.18 L41.24,37.289 C41.586,36.942 41.631,36.395 41.344,35.997 L37.846,31.14 C38.439,30.06 38.91,28.918 39.253,27.732 L45.171,26.693 C45.65,26.609 45.998,26.193 45.998,25.708 L45.998,20.208 C45.999,19.718 45.644,19.3 45.16,19.221 Z M23,30 C19.134,30 16,26.866 16,23 C16,19.134 19.134,16 23,16 C26.866,16 30,19.134 30,23 C30,26.866 26.866,30 23,30 Z" id="Shape"></path>
        </g>
    </g>
</svg>