<?xml version="1.0" encoding="UTF-8"?>
<svg width="15px" height="15px" viewBox="0 0 15 15" version="1.1" xmlns="http://www.w3.org/2000/svg" xmlns:xlink="http://www.w3.org/1999/xlink">
    <title>Loading</title>
    <desc>Loading icon.</desc>
    <g id="Loading" stroke="none" stroke-width="1" fill="none" fill-rule="evenodd">
        <path d="M3.16962556,10.8912365 L1.88075124,12.4674293 C0.813605369,11.2611631 0.128872008,9.70873632 0.0164022774,8 L2.02242151,8 C2.12023712,9.08545524 2.53341321,10.0799755 3.16962556,10.8912365 Z M3.86163731,11.6246874 C4.71409431,12.377211 5.80162792,12.8695874 7,12.9775785 L7,14.9835977 C5.32055671,14.8730561 3.79210963,14.2097034 2.59491237,13.1737932 L3.86163731,11.6246874 Z M8,12.9775785 C8.5842434,12.9249295 9.14214201,12.7809174 9.65929919,12.5599387 L10.7606394,14.2560362 C9.91645973,14.6642088 8.98415571,14.9188202 8,14.9835977 L8,12.9775785 Z M10.5418949,12.0829458 C11.0945315,11.7154031 11.5768867,11.2505675 11.9645057,10.7128938 L13.6608722,11.7782753 C13.1165385,12.5606657 12.4269878,13.234453 11.6312586,13.760599 L10.5418949,12.0829458 Z M12.9775785,7 C12.7249641,4.19674999 10.3690213,2 7.5,2 C4.63097872,2 2.2750359,4.19674999 2.02242151,7 L0.0164022774,7 C0.27369532,3.09098409 3.52587865,0 7.5,0 C11.4741213,0 14.7263047,3.09098409 14.9835977,7 L12.9775785,7 Z" id="Combined-Shape" fill="#7CA878" fill-rule="nonzero"></path>
    </g>
</svg>