<svg width="15" height="13" viewBox="0 0 15 13" fill="none" xmlns="http://www.w3.org/2000/svg">
<path fill-rule="evenodd" clip-rule="evenodd" d="M8.0255 5.27538C8.0255 6.94051 6.67732 8.28733 5.018 8.28733C3.35867 8.28733 2.01049 6.94051 2.01049 5.27538C2.01049 3.61025 3.35867 2.26342 5.018 2.26342C6.67732 2.26342 8.0255 3.61025 8.0255 5.27538ZM8.39158 8.97926C7.50155 9.79182 6.31759 10.2873 5.018 10.2873C2.25243 10.2873 0.0104904 8.04341 0.0104904 5.27538C0.0104904 2.50735 2.25243 0.263424 5.018 0.263424C7.78357 0.263424 10.0255 2.50735 10.0255 5.27538C10.0255 6.02067 9.86297 6.72796 9.57146 7.36369L13.6195 10.4682C14.0578 10.8043 14.1409 11.4323 13.8052 11.8708C13.4694 12.3093 12.842 12.3924 12.4038 12.0563L8.39158 8.97926Z" fill="#9E9E9E"/>
</svg>
