<?xml version="1.0" encoding="UTF-8"?>
<svg width="48px" height="48px" viewBox="0 0 48 48" version="1.1" xmlns="http://www.w3.org/2000/svg" xmlns:xlink="http://www.w3.org/1999/xlink">
    <title>Settings</title>
    <desc>Settings icon.</desc>
    <g id="Settings" stroke="none" stroke-width="1" fill="none" fill-rule="evenodd">
        <path d="M9.26824112,32.489522 C8.63621136,31.3951324 8.12262754,30.2237445 7.74501004,28.9928789 L3.50564355,28.4491591 C1.50474011,28.1925333 0.0080532832,26.4861258 0.0145158503,24.4688431 L0.017519986,23.5311056 C0.0239825531,21.5138229 1.53157185,19.8170399 3.53407845,19.5732394 L7.72808521,19.0626289 C8.05537895,17.9825564 8.48726469,16.9479467 9.01195592,15.9705863 L6.52453107,12.8040969 C5.27836845,11.2177331 5.4084806,8.9516861 6.82802684,7.51838229 L7.48790543,6.85210849 C8.90745167,5.41880468 11.1721384,5.26684355 12.7704471,6.49764843 L16.0088818,8.9914603 C16.9659625,8.48080994 17.977627,8.05902962 19.0328579,7.7371367 L19.5620174,3.50386106 C19.8122318,1.50214577 21.5138358,2.14692757e-15 23.5311289,1.77635684e-15 L24.4688711,1.77635684e-15 C26.4861642,1.40578611e-15 28.1877682,1.50214577 28.4379826,3.50386106 L28.9671421,7.7371367 C30.022373,8.05902962 31.0340375,8.48080994 31.9911182,8.9914603 L35.2295529,6.49764843 C36.8278616,5.26684355 39.0925483,5.41880468 40.5120946,6.85210849 L41.1719732,7.51838229 C42.5915194,8.9516861 42.7216316,11.2177331 41.4754689,12.8040969 L38.9880441,15.9705863 C39.5120803,16.9467267 39.9435427,17.9799735 40.2706886,19.0585844 L44.4979163,19.5732394 C46.5004229,19.8170399 48.0080122,21.5138229 48.0144748,23.5311056 L48.0174789,24.4688431 C48.0239415,26.4861258 46.5272547,28.1925333 44.5263512,28.4491591 L40.2536788,28.9971505 C39.9126655,30.1076536 39.4609688,31.169715 38.9114601,32.1704638 L39.0824752,32 L41.8585409,35.5811434 C43.0944665,37.1754957 42.9497708,39.4406582 41.521028,40.8647949 L40.8568744,41.5268074 C39.4281316,42.9509441 37.1625136,43.0883246 35.5721605,41.8472571 L32,39.059642 L32.1221471,38.9378887 C31.1265231,39.4803841 30.0706548,39.9262423 28.9671421,40.2628633 L28.4379826,44.4961389 C28.1877682,46.4978542 26.4861642,48 24.4688711,48 L23.5311289,48 C21.5138358,48 19.8122318,46.4978542 19.5620174,44.4961389 L19.0328579,40.2628633 C18.1504316,39.9936836 17.2984712,39.6546529 16.4834195,39.2522139 L13.1580283,41.8472571 C11.5676752,43.0883246 9.30205724,42.9509441 7.87331442,41.5268074 L7.20916079,40.8647949 C5.78041797,39.4406582 5.63572228,37.1754957 6.87164787,35.5811434 L9.26824112,32.489522 Z M24,32 C28.418278,32 32,28.418278 32,24 C32,19.581722 28.418278,16 24,16 C19.581722,16 16,19.581722 16,24 C16,28.418278 19.581722,32 24,32 Z" id="Combined-Shape" fill="#444444" fill-rule="nonzero"></path>
    </g>
</svg>