<svg width="17" height="17" viewBox="0 0 17 17" fill="none" xmlns="http://www.w3.org/2000/svg">
<path d="M4.0739 11.3297C3.86323 10.9649 3.69205 10.5744 3.56619 10.1642L2.15315 9.98296C1.48623 9.89742 0.987362 9.32866 0.989517 8.65627L0.990518 8.34371C0.992672 7.67132 1.49517 7.10577 2.16263 7.0245L3.56055 6.85431C3.66964 6.49431 3.81359 6.14946 3.98848 5.8237L3.15939 4.76826C2.74402 4.23951 2.78739 3.48421 3.26054 3.00647L3.48049 2.78439C3.95364 2.30665 4.70849 2.256 5.24123 2.66625L6.32064 3.49747C6.63965 3.32726 6.97684 3.18667 7.32857 3.07938L7.50494 1.66838C7.58834 1.00118 8.15551 0.5005 8.8279 0.5005H9.14046C9.81285 0.5005 10.38 1.00118 10.4634 1.66838L10.6398 3.07938C10.9915 3.18667 11.3287 3.32726 11.6477 3.49747L12.7271 2.66625C13.2599 2.256 14.0147 2.30665 14.4879 2.78439L14.7078 3.00647C15.181 3.48421 15.2243 4.23951 14.809 4.76826L13.9799 5.8237C14.1545 6.14905 14.2984 6.49345 14.4074 6.85296L15.8164 7.0245C16.4838 7.10577 16.9863 7.67132 16.9885 8.34371L16.9895 8.65627C16.9917 9.32866 16.4928 9.89742 15.8259 9.98296L14.4017 10.1656C14.2881 10.5358 14.1375 10.8898 13.9544 11.2233L14.0114 11.1665L14.9367 12.3601C15.3486 12.8916 15.3004 13.6466 14.8242 14.1212L14.6028 14.3419C14.1266 14.8166 13.3714 14.8624 12.8413 14.4487L11.6507 13.5196L11.6914 13.479C11.3595 13.6598 11.0076 13.8084 10.6398 13.9206L10.4634 15.3316C10.38 15.9988 9.81285 16.4995 9.14046 16.4995H8.8279C8.15551 16.4995 7.58834 15.9988 7.50494 15.3316L7.32857 13.9206C7.03444 13.8309 6.75047 13.7179 6.47881 13.5838L5.37041 14.4487C4.84033 14.8624 4.08517 14.8166 3.60895 14.3419L3.38758 14.1212C2.91136 13.6466 2.86313 12.8916 3.27508 12.3601L4.0739 11.3297ZM8.98418 11.1665C10.4568 11.1665 11.6507 9.97267 11.6507 8.5C11.6507 7.02733 10.4568 5.8335 8.98418 5.8335C7.51151 5.8335 6.31768 7.02733 6.31768 8.5C6.31768 9.97267 7.51151 11.1665 8.98418 11.1665Z" fill="#444444"/>
</svg>
